<svg viewBox="0 0 490 903" version="1.1" xmlns="http://www.w3.org/2000/svg"><path fill="#000000" stroke="#000000" stroke-width="2" opacity="1" d="M 236.5 22 L 271.5 22 L 282 27 L 286 33.5 L 287 38.5 L 287 74.5 L 285 82.5 L 285 89.5 L 283 92.5 L 285 101.5 L 285 116 L 286.5 116 L 297 126.5 L 293 136.5 L 299 144.5 L 300 149.5 L 296 157.5 Q 299.4 160.1 298 167.5 L 297 171 L 294.5 172 L 292.5 170 L 270.5 166 L 239.5 165 L 238.5 166 L 223.5 166 L 194 172 L 195 189.5 L 196.5 191 L 213.5 191 L 214.5 190 L 228.5 190 L 229.5 189 L 255.5 189 L 256.5 190 L 269.5 190 L 270.5 191 L 294.5 191 L 299 188.5 L 298 171 L 301 172.5 L 303 188.5 L 304.5 190 Q 307.1 189.2 306 192.5 L 318 221.5 L 330.5 237 L 408.5 262 L 420.5 269 L 426 274.5 L 430 283.5 L 431 295.5 L 433 299 L 430 300.5 Q 427.7 303.7 429 310.5 L 422 328.5 L 420 339.5 L 416 347.5 Q 414.4 361.4 410 372.5 L 409 391.5 Q 411.5 393 410 398.5 L 410 400.5 L 411 403.5 L 409 405.5 L 408 410.5 L 408 417.5 L 404 437.5 L 404 445.5 L 404 447.5 L 401 463.5 L 400 480.5 L 395 498.5 L 393 514.5 L 390 519.5 L 382 549.5 L 377 562.5 L 373 580.5 L 373 603.5 L 374 604.5 L 374 612.5 L 376 622.5 L 379 630.5 L 381 644.5 L 383 649.5 L 390 699.5 L 396 720.5 L 397 735.5 L 398 736.5 L 398 753.5 L 399 754.5 L 399 761.5 L 402 776.5 L 402 786.5 L 403 787.5 L 404 818.5 L 403 819.5 L 403 828.5 L 402 829.5 L 401 840.5 L 391 861.5 L 385.5 868 L 360.5 868 L 359.5 869 L 350.5 869 L 340.5 871 L 321.5 871 L 320.5 872 L 307.5 872 L 306.5 873 L 294.5 873 L 293.5 874 L 276.5 874 L 275.5 875 L 239.5 875 L 238.5 876 L 228.5 876 L 227.5 877 L 176.5 878 L 175.5 877 L 157.5 877 L 145.5 874 L 139.5 874 Q 133 871 123.5 871 L 110 864.5 L 103 853.5 L 98 837.5 L 95 774.5 L 96 773.5 L 98 748.5 L 100 741.5 L 100 731.5 L 102 725.5 L 102 712.5 L 104 709.5 L 111 685.5 L 112 672.5 Q 115.7 664.2 116 652.5 L 121 637.5 L 124 621.5 L 125 598.5 L 126 597.5 L 126 581.5 L 111 547.5 L 93 489.5 L 91 474.5 L 84 439.5 L 81 430.5 L 79 412.5 L 76 403.5 L 74 389.5 L 72 385.5 L 69 369.5 L 55 327.5 L 55 307.5 L 58 293.5 L 57 290.5 L 71.5 273 L 91.5 261 L 109.5 254 L 113.5 254 L 138.5 242 L 152.5 238 L 164.5 232 L 171 225.5 Q 180.7 214.7 184 197.5 L 189.5 190 L 191 189.5 L 191 168.5 L 192.5 168 Q 195.3 166.8 193 165.5 L 192 157.5 L 196 150.5 L 193 143.5 L 197 135 L 194 133.5 Q 192.5 125.5 196.5 123 L 207 118.5 L 208 74.5 L 207 73.5 L 207 29.5 L 209.5 26 Q 217.5 22 231.5 24 L 236.5 22 Z M 235 27 L 227 30 L 230 30 L 234 36 Q 235 44 232 48 L 228 51 L 219 50 L 215 46 Q 214 38 217 35 L 221 32 L 218 40 Q 217 46 222 47 L 227 46 Q 230 44 229 38 L 226 35 L 223 32 L 226 30 L 226 29 Q 217 28 213 30 L 212 36 L 212 75 L 211 76 Q 212 85 210 90 L 223 87 L 224 90 L 223 91 L 210 93 L 211 121 L 201 126 L 199 129 Q 206 130 210 127 L 218 127 L 219 126 Q 225 124 227 128 L 226 129 L 208 130 L 201 133 L 204 135 L 204 138 L 199 143 L 199 146 L 210 143 L 224 143 L 225 146 L 224 147 L 207 147 L 203 148 L 204 151 L 199 158 Q 198 164 202 165 L 216 161 L 229 160 L 230 159 L 266 160 L 294 167 L 293 150 L 269 148 L 263 146 L 265 143 L 284 145 L 294 148 L 295 149 L 289 134 L 288 132 L 267 130 L 265 129 L 267 126 L 274 126 L 286 129 Q 291 130 292 128 L 285 119 L 281 116 L 280 114 L 281 112 L 281 97 L 280 95 L 279 95 L 269 93 L 264 91 L 266 87 L 274 90 L 280 88 L 281 86 L 281 74 L 282 73 L 282 37 L 280 33 L 272 27 L 235 27 Z M 194 193 L 188 202 L 187 209 L 182 219 L 177 225 L 194 227 L 215 234 L 223 234 L 235 238 L 251 239 L 252 240 L 273 239 L 293 235 L 308 230 L 314 226 Q 306 214 304 196 Q 300 197 299 194 L 296 195 L 262 195 L 261 194 L 243 194 L 242 193 Q 235 191 234 194 L 198 194 L 194 193 Z M 175 228 L 167 236 L 155 242 L 141 246 L 116 258 L 94 265 L 82 271 L 68 283 L 77 296 L 133 296 L 134 295 L 428 295 Q 426 291 427 283 L 425 279 L 414 269 L 398 262 L 373 254 L 354 250 L 349 247 L 337 244 Q 324 238 316 228 L 308 234 L 294 239 L 265 244 L 240 243 L 222 237 L 213 237 L 188 229 L 175 228 Z M 64 285 L 61 290 L 62 292 L 58 314 L 59 330 L 75 377 Q 74 380 77 379 Q 84 373 87 362 L 90 359 L 137 359 L 138 358 L 407 359 L 409 355 L 412 343 L 109 342 L 108 341 L 90 341 L 89 343 L 87 343 L 85 342 Q 85 329 80 321 L 80 316 L 82 314 L 422 314 Q 426 309 426 300 L 102 300 L 101 299 L 76 299 L 68 287 L 64 285 Z M 83 318 L 87 330 L 88 337 L 90 338 L 91 337 L 413 337 L 420 320 L 334 319 L 333 318 Q 327 317 326 319 L 104 319 L 103 318 L 83 318 Z M 91 362 L 82 380 L 81 382 L 92 382 L 93 381 L 235 381 L 240 382 L 245 381 L 246 382 L 255 382 L 257 382 L 259 381 L 404 381 L 404 373 L 406 362 L 358 362 L 357 363 L 126 363 L 125 362 L 91 362 Z M 77 384 L 81 402 L 125 402 L 126 401 L 403 401 L 404 400 L 404 385 L 80 385 L 77 384 Z M 82 404 L 84 412 Q 83 420 85 424 L 394 424 L 395 423 L 402 423 Q 404 416 403 405 L 88 405 L 82 404 Z M 86 427 L 89 444 L 91 445 L 399 445 L 400 444 L 401 428 L 190 428 L 189 427 L 148 428 L 146 428 L 145 427 L 86 427 Z M 91 448 L 91 456 L 95 469 L 96 468 L 396 468 L 399 449 L 103 449 L 102 448 L 91 448 Z M 95 471 L 98 489 L 257 489 L 258 488 L 381 488 L 382 489 L 393 489 L 396 472 L 372 472 L 371 471 L 95 471 Z M 99 492 L 100 501 L 104 512 L 132 512 L 133 511 L 389 511 L 392 492 L 372 492 L 371 493 L 99 492 Z M 108 514 L 106 516 L 109 528 L 114 536 L 115 535 L 293 535 L 294 534 L 380 534 L 381 535 L 383 532 L 388 517 L 387 515 L 121 515 L 120 514 L 108 514 Z M 119 537 L 114 540 L 121 558 L 369 558 L 373 557 L 380 539 L 128 538 L 127 537 L 119 537 Z M 124 561 L 129 579 L 133 584 L 143 584 L 144 583 L 368 583 L 368 577 L 371 562 L 369 561 L 124 561 Z M 132 586 Q 133 597 130 605 L 131 608 L 368 608 L 369 607 L 369 587 L 146 587 L 145 586 L 132 586 Z M 131 610 L 129 612 L 126 635 L 118 662 L 118 674 L 117 675 L 116 686 L 110 707 L 106 715 L 105 744 L 104 745 L 102 769 L 101 770 L 101 801 L 102 802 L 102 827 L 103 828 L 103 836 L 107 847 L 107 851 L 111 859 Q 115 866 124 868 L 137 869 L 138 870 L 149 870 L 157 872 L 177 872 L 178 873 L 200 873 L 201 872 L 214 872 L 215 871 L 235 871 L 243 869 L 280 869 L 281 868 L 297 868 L 298 867 L 338 866 L 349 864 L 358 864 L 359 863 L 386 863 Q 391 857 394 849 L 397 834 L 397 826 L 398 825 L 398 801 L 397 800 L 397 788 L 396 787 L 396 774 L 393 760 L 392 730 L 391 729 L 390 717 L 382 685 L 381 671 L 369 612 L 369 610 L 131 610 Z "/><path fill="#000000" stroke="#000000" stroke-width="2" opacity="1" d="M 221 38 L 225 39.5 L 226 41.5 L 225 44 L 221 41.5 L 221 38 Z "/><path fill="#000000" stroke="#000000" stroke-width="2" opacity="1" d="M 236.5 85 L 248.5 85 L 261 89.5 L 255.5 90 L 254.5 89 L 235.5 89 L 234 87.5 L 236.5 85 Z "/><path fill="#000000" stroke="#000000" stroke-width="2" opacity="1" d="M 328 619 Q 331.3 617.7 330 622.5 Q 328.5 632 324 638.5 L 307 663 L 303 661.5 L 323 632.5 L 328 619 Z "/><path fill="#000000" stroke="#000000" stroke-width="2" opacity="1" d="M 173 621 L 178 624.5 L 200 656.5 L 200 659 Q 196.2 659.8 195 656.5 Q 181.7 640.6 173 621 Z "/><path fill="#000000" stroke="#000000" stroke-width="2" opacity="1" d="M 200 770 L 203 771.5 L 204 786.5 L 208 802.5 Q 217.2 823.8 234.5 837 L 252 847.5 L 248.5 849 Q 229.9 842.1 218 828.5 Q 209.7 819.3 205 806.5 L 201 789.5 L 199 772.5 L 200 770 Z "/><path fill="#000000" stroke="#000000" stroke-width="2" opacity="1" d="M 302 775 L 306 775 L 306 776.5 L 307 778.5 L 306 779.5 L 305 790.5 L 298 808.5 Q 290.2 823.2 278.5 834 L 268.5 842 L 261 845 L 264.5 840 L 268.5 838 L 283 823.5 L 295 803.5 L 298 795.5 L 302 775 Z "/></svg>