<svg viewBox="0 0 490 689" version="1.1" xmlns="http://www.w3.org/2000/svg"><path fill="#000000"  stroke="none" opacity="1" d="M 249.5 66 L 267.5 67 L 283.5 71 Q 306.7 80.3 322 97.5 L 340.5 123 Q 350.2 126.8 356 134.5 L 367 154.5 L 372 168.5 L 374 197.5 L 377 211.5 L 377 229.5 L 378 230.5 L 378 247.5 Q 380.3 248.7 379 253.5 L 377 256.5 L 379 261.5 L 379 277.5 L 377 281.5 L 377 285.5 L 369 315.5 L 369 325.5 L 366 334.5 L 362.5 339 L 353 341 L 353 353.5 Q 348.4 364.9 347 379.5 L 345 383.5 L 345 388.5 L 349.5 396 Q 351.8 395.3 351 397.5 Q 353.7 406.8 361.5 411 L 383.5 424 L 402.5 430 L 421.5 440 L 442.5 448 L 458 460.5 Q 462.2 463.3 463 469.5 L 459.5 471 L 453 463 L 433.5 450 L 423.5 447 L 400.5 435 L 377.5 426 L 357.5 411 L 357 412.5 Q 366.2 425.8 371 443.5 L 378 475.5 L 380 498.5 L 376 500 L 372 466.5 L 366 440.5 L 354.5 414 L 354 440.5 L 347 466.5 L 334 496.5 L 328 516.5 L 317 534.5 L 310.5 542 Q 307.9 542.8 309 539.5 L 311 535.5 L 310 533.5 Q 316.3 525.3 318 512.5 L 313.5 516 L 306 522.5 L 306 525.5 L 288 549.5 L 285 555.5 L 283 567.5 L 284 568.5 L 284 582.5 L 287 594.5 L 287 650.5 L 288 651.5 L 288 667 Q 285 668.3 286 664.5 L 284 654.5 L 283 620.5 L 284 619.5 L 285 599.5 L 280 578.5 L 280 562.5 L 285 548.5 L 297 531.5 L 284.5 543 L 271 554.5 L 265 563.5 L 260 580.5 L 258.5 582 L 256 583.5 L 253 594.5 L 251 617.5 L 250 618.5 L 250 634.5 L 248 645.5 L 247 670 Q 243 671.4 245 664.5 L 244 663.5 L 244 650.5 L 245 649.5 L 246 618.5 L 247 617.5 L 247 609.5 L 248 608.5 L 250 590.5 L 259 569.5 L 262 556.5 L 267 546.5 Q 263 537.5 255.5 532 L 225.5 524 Q 213.9 520.1 207.5 511 L 207 513.5 L 209 516.5 L 210 526.5 L 208 537.5 L 204.5 543 Q 202.3 543.8 203 541.5 Q 196.3 514.2 177.5 499 L 167 489.5 L 157 468.5 L 147 438.5 L 140 422.5 L 140 405.5 L 142 395.5 L 145 390.5 L 142.5 390 L 127.5 399 L 118.5 402 L 89.5 416 L 52.5 428 L 43.5 434 L 40 434 Q 39 427.6 44.5 426 L 52.5 422 L 76.5 415 L 115.5 398 L 126.5 395 Q 134.3 389.3 145.5 387 L 148 384.5 L 152 375.5 Q 146.8 364.2 146 348.5 L 144.5 347 L 141 344.5 L 133 330.5 L 127 312.5 L 125 302.5 L 119 285.5 L 119 275.5 L 122 268.5 L 116 256.5 L 110 238.5 L 105 214.5 L 105 202.5 L 106 201.5 L 107 190.5 L 115 170.5 L 117 157 L 120 155.5 Q 124.3 128.3 140.5 113 Q 142.8 113.8 142 111.5 L 151.5 99 L 172.5 87 L 185.5 76 L 225.5 67 L 248.5 67 L 249.5 66 Z M 231 72 L 230 73 L 212 75 L 188 81 L 174 93 L 157 102 L 136 127 L 126 146 L 122 160 L 119 165 L 118 176 L 111 198 L 111 216 L 115 236 Q 121 259 133 277 L 133 253 L 134 252 L 134 223 L 130 207 L 130 187 L 132 179 L 129 178 L 130 176 Q 138 165 152 161 Q 155 160 156 163 L 147 166 L 135 187 L 135 207 L 139 222 L 139 292 L 140 293 L 140 301 L 142 311 L 144 316 L 144 327 L 149 342 L 152 369 L 156 383 L 167 404 L 189 435 L 187 436 L 173 420 L 170 414 L 169 414 Q 175 437 186 455 Q 185 457 188 456 Q 202 470 212 489 L 225 501 L 251 515 Q 263 525 272 539 L 297 502 Q 304 491 307 478 Q 308 475 312 476 L 319 469 Q 322 463 320 454 L 332 433 L 337 418 L 338 408 L 340 406 L 342 408 L 342 415 L 338 431 L 324 456 Q 326 467 321 472 L 313 479 L 318 488 L 322 501 L 322 505 L 324 507 L 320 522 L 321 524 L 326 515 L 330 498 L 343 468 L 350 441 L 350 411 L 346 396 L 344 391 L 338 406 L 330 419 L 312 436 L 310 437 L 311 434 L 331 411 L 344 381 L 350 351 L 350 330 L 351 329 L 351 318 L 352 317 L 352 305 L 355 293 L 354 277 L 351 276 L 351 268 L 352 267 L 352 258 L 349 259 L 348 257 Q 349 254 346 255 L 346 236 L 345 235 L 345 222 L 343 224 L 341 236 L 335 254 L 335 255 L 331 255 L 331 249 L 334 239 L 336 222 L 337 221 L 337 213 L 338 212 L 338 199 L 336 198 L 336 173 L 337 172 L 337 166 L 332 178 L 329 179 L 329 173 L 330 172 L 330 165 Q 327 163 328 157 L 320 144 L 317 140 L 306 135 L 303 135 L 299 137 L 300 125 Q 305 124 303 128 L 319 135 Q 326 141 329 152 Q 328 155 332 153 L 332 156 L 334 156 L 334 164 L 333 165 L 334 167 L 337 162 L 339 167 L 339 181 L 342 196 L 343 211 L 345 210 L 348 218 L 349 247 L 351 250 Q 349 256 355 254 L 355 267 L 354 268 Q 353 271 356 270 L 358 274 L 358 283 L 357 284 L 359 289 L 358 294 Q 357 297 360 296 L 361 285 L 365 279 L 364 275 L 364 249 L 373 239 L 374 235 L 374 215 L 371 217 L 368 215 L 367 172 L 364 160 L 361 154 Q 362 151 359 152 L 350 138 Q 346 132 338 129 L 318 103 L 308 92 Q 295 83 280 76 L 262 72 L 231 72 Z M 371 249 L 368 252 L 368 283 L 365 286 Q 367 297 362 302 L 358 301 Q 356 304 357 313 L 354 316 L 354 330 L 353 331 Q 352 336 355 337 L 361 336 L 364 328 L 364 316 L 366 306 L 375 274 L 374 255 L 371 249 Z M 125 274 L 123 276 L 123 283 L 125 291 L 129 299 L 138 330 L 143 340 L 144 340 L 141 327 L 140 314 Q 136 308 136 299 L 133 295 Q 130 283 125 274 Z M 153 380 L 145 398 Q 146 402 144 404 L 144 423 L 159 463 L 170 487 L 180 495 Q 197 508 204 532 L 206 533 L 206 523 L 204 516 L 185 483 Q 186 478 183 479 L 185 492 Q 187 497 183 496 L 180 486 Q 179 479 181 476 L 186 475 Q 191 474 194 477 L 199 486 L 205 501 L 210 507 Q 216 515 227 519 L 255 527 L 256 527 L 248 519 L 222 505 L 207 490 Q 200 474 190 463 Q 189 459 185 460 L 174 439 L 153 380 Z M 189 479 L 193 488 L 195 489 L 192 482 L 189 479 Z M 311 483 L 303 501 L 274 545 L 273 547 L 311 513 Q 316 511 317 505 Q 317 490 311 483 Z M 207 509 L 206 511 L 207 511 L 207 509 Z M 257 527 L 257 528 L 257 527 Z M 265 535 L 265 536 L 265 535 Z M 266 536 L 266 537 L 266 536 Z M 267 537 L 266 539 L 267 539 L 267 537 Z M 268 539 L 268 543 L 269 543 L 268 539 Z "/><path fill="#000000"  stroke="none" opacity="1" d="M 185.5 104 Q 194.1 103.9 199.5 107 Q 222 121 247.5 132 L 254.5 134 L 262 134 L 260.5 131 L 241 118 Q 238.8 112 245.5 114 Q 261.6 123.4 273.5 137 L 277 138 Q 276.8 130.5 273 125.5 L 263 114.5 L 263 111 L 266.5 111 L 272 115 L 279 127.5 L 280.5 137 Q 283.1 131.1 282 121.5 L 280 114 Q 283.8 112.5 283 115.5 L 285 118.5 L 285 131.5 L 282 140 Q 279.3 141.1 280 138.5 L 279 138.5 L 278.5 142 L 276.5 139 L 273.5 140 L 266.5 136 L 261.5 136 L 260.5 137 L 250.5 137 L 226.5 128 L 196.5 112 L 184 109 Q 183 105.2 185.5 104 Z "/><path fill="#000000"  stroke="none" opacity="1" d="M 291.5 115 L 294 116.5 Q 295.6 129.6 290.5 136 L 290 116.5 L 291.5 115 Z "/><path fill="#000000"  stroke="none" opacity="1" d="M 222.5 131 L 225 131.5 L 215.5 137 L 210.5 137 L 204.5 139 L 192.5 139 L 173.5 149 L 159.5 152 L 141.5 159 Q 139 157.8 140 154 Q 152.1 147.4 170.5 146 L 184 140.5 Q 178.6 141.4 177 138.5 Q 175.2 132.8 181.5 135 L 182.5 134 L 212.5 134 L 222.5 131 Z "/><path fill="#000000"  stroke="none" opacity="1" d="M 302.5 246 L 308.5 246 L 320 253.5 L 323 257.5 L 323 260 L 319.5 260 L 309.5 255 L 303 257 Q 303.8 260.8 300.5 262 L 297 263.5 L 308.5 266 L 310 267.5 Q 310.8 272.3 307.5 273 L 303 274 L 304.5 271 Q 307.1 271.7 306 269 L 298.5 267 Q 299 274.5 294.5 277 Q 282.6 279.4 279 273.5 L 277.5 268 L 266.5 276 L 266 273.5 Q 271.2 266.7 280 263.5 L 275.5 263 Q 272.6 265.6 266.5 265 L 262.5 264 L 260 261.5 L 261 259.5 L 260.5 258 L 298.5 248 L 300 252 L 295 253.5 L 301.5 254 L 302.5 251 L 307 250.5 Q 302.4 251.1 301 248.5 L 302.5 246 Z M 309 251 L 309 252 L 310 252 L 309 251 Z M 287 255 L 279 258 L 263 260 L 263 261 Q 272 262 277 259 L 295 259 L 298 258 L 292 255 L 287 255 Z M 283 266 L 281 268 L 282 273 Q 285 275 294 274 Q 297 273 296 268 L 293 266 L 292 272 L 290 273 L 285 272 L 284 270 L 285 267 L 283 266 Z "/><path fill="#000000"  stroke="none" opacity="1" d="M 174.5 250 Q 179.9 248.1 179 251.5 L 175 254 Q 173.7 257.3 178.5 256 L 184.5 259 L 199.5 259 L 199.5 258 L 196.5 258 L 180 250.5 L 185.5 250 L 198.5 255 L 214.5 256 L 217 257 L 217 260 L 210.5 260 L 209.5 259 L 201.5 259 L 201.5 260 L 206.5 262 L 212.5 262 L 222 264 L 219 259.5 L 221.5 259 L 225 261.5 L 226 266 Q 222.4 268.3 213.5 267 L 204.5 265 L 201.5 263 L 183.5 263 Q 180.8 260.2 174.5 261 L 160.5 266 L 159.5 265 L 154.5 270 L 153 268.5 L 161.5 258 L 174.5 250 Z M 169 258 L 166 260 L 171 260 Q 172 257 169 258 Z "/><path fill="#000000"  stroke="none" opacity="1" d="M 193.5 266 L 205.5 266 Q 213 269 217 275.5 Q 217.8 277.8 215.5 277 L 206.5 270 L 204 270 L 204 274.5 L 198.5 281 L 194.5 282 L 189.5 281 L 186 277.5 L 185 272.5 L 186 272.5 L 190.5 278 Q 199.3 279.8 201 274.5 L 203 270.5 Q 202.3 268.3 198.5 269 Q 195.8 270.3 198 271.5 Q 198.8 275.3 196.5 276 Q 191.1 277.9 192 274.5 L 192 272.5 Q 193.3 268.8 189.5 270 L 184.5 271 L 176 276.5 L 182 280.5 Q 182.8 283.1 179.5 282 L 174.5 278 L 172.5 279 L 173 277.5 L 177.5 272 L 184.5 268 L 193.5 266 Z "/><path fill="#000000"  stroke="none" opacity="1" d="M 224 271 L 226 271.5 L 226 284.5 L 227 285.5 L 228 325.5 L 226 334.5 L 226 345.5 L 230.5 352 L 237.5 353 Q 239.8 350.3 245.5 351 L 247.5 352 L 248.5 351 L 266 350 Q 268.3 346.4 267 337.5 L 260 331.5 Q 259.3 329.3 261.5 330 L 264.5 333 Q 268.3 332.3 269 334.5 Q 271.7 338.3 270 346.5 L 268 350.5 L 269 355 L 264.5 356 L 263.5 355 L 251.5 355 L 247 358.5 L 245 363.5 Q 248.6 368.9 247 379.5 L 243.5 381 L 236 377.5 Q 237.3 374.8 238.5 377 L 244 378 L 242 361 L 234.5 360 L 223.5 354 Q 215.5 355.5 213 351.5 L 209 340.5 L 211.5 337 Q 214.1 337.8 213 334.5 L 216 333 L 213 344.5 L 215.5 349 L 224 350 L 223 347.5 L 223 333.5 L 225 325.5 L 225 290.5 L 224 289.5 L 224 271 Z M 241 355 L 237 357 Q 239 359 244 358 L 245 356 L 241 355 Z "/><path fill="#000000"  stroke="none" opacity="1" d="M 260.5 281 Q 265.8 279.8 267 282.5 L 262 284.5 L 263 287 L 260 285.5 L 259 282.5 L 260.5 281 Z "/><path fill="#000000"  stroke="none" opacity="1" d="M 215.5 283 Q 218.8 281.9 218 284.5 L 219 288 Q 216 289 217 286 L 214.5 286 L 211 288 L 213.5 284 L 215.5 283 Z "/><path fill="#000000"  stroke="none" opacity="1" d="M 358.5 322 L 362 323.5 Q 362.8 327.3 360.5 328 Q 356.8 328.8 356 326.5 Q 355.5 322.5 358.5 322 Z "/><path fill="#000000"  stroke="none" opacity="1" d="M 281.5 378 L 284 379.5 Q 285.1 382.8 282.5 382 L 281.5 383 L 258.5 383 Q 253.5 389.5 241.5 389 L 228.5 383 L 222.5 387 L 208.5 388 L 207 384.5 L 209.5 383 L 210.5 384 L 221.5 384 L 228 382.5 L 226.5 380 L 239.5 385 L 247.5 385 L 258.5 379 L 259.5 380 L 277.5 380 L 281.5 378 Z "/><path fill="#000000"  stroke="none" opacity="1" d="M 264.5 390 L 267 391.5 Q 267.5 395.5 264.5 396 L 253.5 400 L 238.5 400 Q 231.8 398.8 228 394.5 L 228.5 392 L 234.5 396 L 247.5 397 Q 257.6 395.1 264.5 390 Z "/><path fill="#000000"  stroke="none" opacity="1" d="M 220 445 Q 222.7 443.9 222 446.5 L 227.5 454 L 238.5 457 L 259.5 457 L 283.5 450 L 293 445 L 289.5 450 L 279.5 455 Q 269.2 455.7 262.5 460 L 243.5 461 L 229.5 458 L 222 452.5 L 220 445 Z "/><path fill="#000000"  stroke="none" opacity="1" d="M 88 446 L 108.5 463 L 109 455 L 112 455.5 L 112 465.5 L 108.5 467 L 104.5 465 L 91 451.5 L 88 446 Z "/><path fill="#000000"  stroke="none" opacity="1" d="M 122 465 L 126 467.5 L 140 504.5 L 143 546.5 L 144 547.5 L 148 583.5 L 152 599.5 L 154 618 Q 149.9 619.7 151 615.5 L 146 592.5 L 142 559.5 L 141 558.5 L 139 532.5 L 138 531.5 L 138 521.5 L 137 520.5 L 137 509.5 L 131 487.5 L 125 471.5 L 122 468.5 L 122 465 Z "/><path fill="#000000"  stroke="none" opacity="1" d="M 269.5 634 L 273.5 635 L 276 637.5 Q 277.9 650.4 270.5 654 L 266.5 655 L 262 652.5 Q 259.7 649.3 261 642.5 L 266.5 635 L 269.5 634 Z M 266 638 Q 263 641 264 649 L 265 649 Q 264 646 267 647 L 268 652 L 270 651 Q 274 648 273 640 Q 271 636 266 638 Z "/><path fill="#000000"  stroke="none" opacity="1" d="M 266 642 L 269 642.5 L 268 645 Q 264.7 646.1 266 642 Z "/><path fill="#000000"  stroke="none" opacity="1" d="M 269.5 644 L 271 644.5 L 269.5 645 L 269.5 644 Z "/></svg>