<svg viewBox="0 0 490 903" version="1.1" xmlns="http://www.w3.org/2000/svg"><path fill="#3ABAB6" stroke="#3ABAB6" stroke-width="2" opacity="1" d="M 251.5 24 Q 258.3 22.3 260 25.5 L 262 33.5 L 262 49.5 L 263 50.5 L 263 85.5 L 262 88 L 257 89 L 254 117 L 258 119.5 L 260 124.5 L 256.5 127 L 236.5 128 Q 234 126.8 235 123 Q 240.4 122.4 243 117.5 L 242 116.5 L 241 95.5 L 238 87.5 L 241 83.5 L 240 82.5 L 240 51 Q 237.3 49.9 238 52.5 Q 234.3 58.8 222.5 57 L 218.5 55 L 218 84.5 L 217 89 Q 223.3 87.5 225 91.5 L 223 120.5 L 217.5 126 L 214 128.5 L 217 134.5 L 217 137.5 L 211 146.5 Q 213.8 148.2 213 153.5 L 210 162.5 L 211 164.5 L 210 167.5 L 212 169.5 L 212 188.5 L 211 192 Q 208.6 193.7 202.5 193 Q 200 191.8 201 188 Q 197.2 189 196 186.5 L 196 173.5 L 198.5 170 L 207 167.5 Q 203.4 166.1 204 160.5 L 208 150.5 L 204 147.5 L 203 142.5 Q 206.9 140.9 206 134.5 L 203 128.5 L 215 120.5 L 216 112.5 L 213 97.5 L 209 90.5 L 211 87.5 L 212 51.5 L 211 50.5 L 211 32.5 L 213.5 29 Q 219.6 24.6 231.5 26 L 237.5 30 L 239 25 L 246.5 26 L 251.5 24 Z M 239 30 L 239 31 L 239 30 Z M 228 31 L 225 33 Q 219 32 217 34 L 218 37 L 218 47 L 227 46 L 233 39 L 232 34 Q 232 30 228 31 Z M 245 87 Q 243 90 246 89 L 245 87 Z "/><path fill="#3ABAB6" stroke="#3ABAB6" stroke-width="2" opacity="1" d="M 276.5 27 L 280 28.5 L 280 71.5 L 279 72.5 L 279 89.5 L 276.5 92 L 274 90.5 L 275 28.5 L 276.5 27 Z "/><path fill="#3ABAB6" stroke="#3ABAB6" stroke-width="2" opacity="1" d="M 275.5 95 L 279 96.5 L 279 116.5 L 287 126.5 L 287 130 L 285 130.5 L 292 142.5 L 292 147 L 288 147 L 288 145.5 L 281 131.5 L 283 129.5 L 278 124.5 L 274 117.5 L 274 96.5 L 275.5 95 Z "/><path fill="#3ABAB6" stroke="#3ABAB6" stroke-width="2" opacity="1" d="M 250.5 130 Q 257.3 129.1 260 131 Q 261.8 139 256.5 141 L 253.5 142 L 236.5 142 Q 233.8 140.8 235 135.5 L 238.5 131 L 249.5 131 L 250.5 130 Z "/><path fill="#3ABAB6" stroke="#3ABAB6" stroke-width="2" opacity="1" d="M 250.5 146 L 259.5 146 L 261 147.5 L 261 156.5 L 260 157.5 L 260 192.5 L 259 193.5 L 260.5 195 L 289 195 L 288 190.5 L 288 170.5 Q 288.8 168.3 292.5 169 L 294 170.5 L 295 190.5 Q 291.8 192.8 293 199.5 L 302 223.5 L 306 229.5 L 287.5 236 L 271.5 239 L 254.5 240 L 253.5 239 L 239.5 239 L 227.5 235 L 215.5 234 L 197.5 228 L 185 226 L 198 201.5 L 200 194 L 237 194 L 237 158.5 L 235 150.5 L 236 148 L 241.5 147 L 243.5 148 L 250.5 146 Z "/><path fill="#3ABAB6" stroke="#3ABAB6" stroke-width="2" opacity="1" d="M 284 149 Q 287.8 148 289 150.5 L 292 164.5 L 288.5 166 L 284 154.5 L 284 149 Z "/><path fill="#3ABAB6" stroke="#3ABAB6" stroke-width="2" opacity="1" d="M 72.5 296 L 75.5 299 L 99.5 299 L 100.5 300 L 416 300 L 412 314 L 136.5 314 L 135.5 313 L 127.5 313 L 126.5 314 L 81.5 314 L 80 315.5 L 80 320.5 L 83 327.5 L 85 343 L 87.5 344 L 89 341 L 103.5 341 L 104.5 342 L 404 342 L 400 356.5 L 397.5 359 L 310.5 359 Q 309.3 356.8 304.5 358 L 303.5 359 L 269.5 359 L 268.5 358 L 132.5 358 L 131.5 359 L 92.5 359 L 90.5 359 L 87 361.5 L 83 369.5 L 83 374.5 L 84 377.5 L 82 376.5 L 81 369.5 L 74 348.5 L 71 344.5 L 68 335.5 Q 69.2 330.8 67 329.5 L 67 308.5 Q 68.3 300.8 72.5 296 Z "/><path fill="#3ABAB6" stroke="#3ABAB6" stroke-width="2" opacity="1" d="M 85 385 L 394.5 385 L 395 385.5 L 395 401 L 114.5 401 L 113.5 402 L 90 402 L 85 385 Z "/><path fill="#3ABAB6" stroke="#3ABAB6" stroke-width="2" opacity="1" d="M 96 427 L 124.5 427 L 125.5 428 L 393 428 L 391 444 L 123.5 444 L 122.5 445 L 100 445 L 96 427 Z "/><path fill="#3ABAB6" stroke="#3ABAB6" stroke-width="2" opacity="1" d="M 108 471 L 279.5 471 L 280.5 472 L 290.5 472 L 291.5 471 L 340.5 471 L 341.5 472 L 351.5 472 L 353.5 471 L 354.5 472 L 386 472 L 384 488 L 114 489 L 108 471 Z "/><path fill="#3ABAB6" stroke="#3ABAB6" stroke-width="2" opacity="1" d="M 394.5 477 L 395 480.5 L 394 480.5 L 394.5 477 Z "/><path fill="#3ABAB6" stroke="#3ABAB6" stroke-width="2" opacity="1" d="M 393.5 482 L 394 485.5 L 393 485.5 L 393.5 482 Z "/><path fill="#3ABAB6" stroke="#3ABAB6" stroke-width="2" opacity="1" d="M 122.5 515 L 379.5 515 L 380 516.5 L 378 518.5 L 375 532.5 L 373.5 534 L 127 535 L 122.5 515 Z "/><path fill="#3ABAB6" stroke="#3ABAB6" stroke-width="2" opacity="1" d="M 134 561 L 172.5 561 L 175.5 562 Q 176.8 559.8 181.5 561 Q 182.7 563.3 187.5 562 L 189.5 562 L 203.5 562 L 204.5 561 L 265.5 561 L 266.5 562 L 363 562 L 362 564.5 L 362 572.5 L 360 583 L 139.5 583 Q 138.5 583 139 578.5 L 134 561 Z "/><path fill="#3ABAB6" stroke="#3ABAB6" stroke-width="2" opacity="1" d="M 327.5 608 Q 333.6 607.4 336.5 610 L 355.5 611 L 358.5 610 L 361 611.5 L 365 649.5 L 371 672.5 L 373 690.5 L 376 698.5 L 382 739.5 L 384 745.5 L 385 768.5 L 386 769.5 L 386 785.5 L 387 786.5 L 387 798.5 L 388 799.5 L 388 837.5 L 385 849.5 L 381.5 853 L 361.5 859 L 358.5 858 L 328.5 864 L 303.5 865 L 302.5 864 L 288.5 864 L 287.5 865 L 279.5 865 L 269.5 867 L 226.5 868 L 211.5 871 L 181.5 871 L 180.5 870 L 154.5 868 L 136.5 863 L 128.5 863 L 124.5 862 L 119 856.5 L 111 842.5 Q 112.7 836.2 110 834.5 L 110 765.5 L 109 762.5 L 110 761.5 L 111 740.5 L 112 739.5 L 112 730.5 L 114 724.5 L 115 711.5 L 119 693.5 L 121 689.5 L 129 645.5 L 134 629.5 L 136 610 L 180.5 609 L 181.5 610 L 322.5 610 L 327.5 608 Z "/></svg>
