<svg viewBox="0 0 208 296" version="1.1" xmlns="http://www.w3.org/2000/svg"><path fill="#000000"  stroke="none" opacity="1" d="M 98.5 4 L 105.5 4 L 109.5 6 L 141.5 10 L 151 16.5 Q 154 19.5 153 26.5 L 150 33.5 L 145 56.5 L 145 64.5 L 140 88.5 L 140 94.5 Q 142.8 95.3 142 99.5 L 137 104.5 L 137 108 L 142.5 109 L 183.5 109 Q 185.3 106.3 191.5 108 L 195 114.5 L 196 137.5 L 197 138.5 L 197 194.5 L 196 195.5 L 196 237.5 L 193 249.5 L 193 260.5 Q 190.5 272.5 184 280.5 L 185 282.5 L 182.5 285 L 178.5 286 L 144.5 286 L 143.5 285 L 100.5 285 L 99.5 284 L 70.5 284 L 66.5 283 Q 65 285.5 59.5 284 L 51.5 282 L 36.5 282 L 18 278 L 16.5 281 L 14.5 282 L 11 279.5 L 8 270.5 L 4 248.5 L 4 233.5 L 3 232.5 L 3 186.5 L 4 185.5 L 4 159.5 L 6 152.5 L 6 144.5 L 9 133.5 L 8 129.5 L 11 117.5 L 20.5 105 L 32.5 104 L 33.5 105 L 52.5 105 L 53.5 106 L 63 106 L 63 101.5 Q 59.4 99.7 59 94.5 L 62 89.5 L 62 68.5 L 58 46.5 L 51 23.5 L 51 18.5 L 54.5 14 L 62.5 10 L 77.5 7 L 80.5 8 L 98.5 4 Z M 103 6 L 101 8 L 87 9 L 86 10 L 77 10 L 76 13 L 82 13 L 93 16 L 98 16 Q 97 19 100 18 L 98 26 L 106 27 L 131 25 L 136 24 L 140 21 L 139 17 L 136 14 L 125 12 L 121 10 L 117 11 L 119 11 L 121 15 L 110 8 L 105 7 L 103 16 Q 102 19 100 16 L 103 9 L 103 6 Z M 69 11 L 64 14 Q 61 15 62 19 L 67 21 L 75 14 Q 74 10 69 11 Z M 77 15 L 70 22 L 83 25 L 96 26 L 98 20 L 77 15 Z M 58 16 L 54 19 L 54 23 L 60 40 L 65 63 L 65 88 L 62 95 L 65 101 Q 66 107 64 107 L 64 109 L 60 114 L 72 120 L 85 123 L 94 123 L 103 125 L 117 123 L 117 122 Q 110 120 109 123 Q 88 122 73 116 L 71 113 L 80 116 L 103 118 L 104 119 L 116 118 L 130 113 Q 133 115 132 117 L 139 114 Q 141 109 137 110 Q 135 112 134 110 Q 134 102 139 100 L 137 96 L 137 83 L 140 69 L 141 54 L 146 33 L 151 24 L 150 21 L 145 16 L 142 24 L 136 27 L 124 28 L 123 29 L 90 29 Q 88 27 83 28 L 65 23 L 60 20 Q 62 15 58 16 Z M 59 108 L 58 109 L 39 110 L 38 111 L 22 111 L 12 126 L 12 131 L 9 144 L 9 158 L 7 169 L 7 229 L 8 230 L 8 245 L 9 246 L 10 260 L 14 275 L 21 276 L 23 275 L 34 277 L 42 277 L 43 278 L 55 278 L 72 281 L 104 281 L 105 282 L 154 282 L 155 281 L 181 280 Q 186 274 188 264 L 190 245 L 191 244 L 191 235 L 192 234 L 192 158 L 191 157 L 191 142 L 190 141 L 190 130 L 189 129 L 189 120 Q 186 122 187 128 L 186 129 Q 183 130 184 127 L 181 125 L 185 124 L 186 115 L 188 115 L 170 114 L 169 113 L 158 113 L 157 112 L 148 112 L 142 111 L 143 114 L 142 117 L 140 117 L 128 124 L 113 129 L 97 129 L 96 128 L 79 126 L 60 117 Q 58 119 57 117 Q 56 110 60 109 L 59 108 Z M 124 119 L 124 120 L 125 120 L 124 119 Z M 122 120 L 122 121 L 123 121 L 122 120 Z M 118 121 L 118 122 L 120 122 L 118 121 Z "/><path fill="#000000"  stroke="none" opacity="1" d="M 125.5 14 L 128 15.5 L 133 23 L 125.5 17 L 121.5 19 Q 116 17.5 114.5 20 L 102.5 20 L 103.5 18 L 117.5 17 L 125.5 14 Z "/><path fill="#000000"  stroke="none" opacity="1" d="M 66 98 L 80.5 101 L 117.5 102 L 118.5 101 Q 126.5 101.7 131 100 L 129.5 104 L 122.5 106 L 93.5 106 L 92.5 105 L 78.5 104 L 66 100 L 66 98 Z "/><path fill="#000000"  stroke="none" opacity="1" d="M 18.5 126 L 56.5 127 L 57.5 128 L 71 129 L 69.5 132 L 68.5 131 L 57.5 131 L 56.5 130 L 39.5 130 L 38.5 129 L 24.5 129 L 18 128 L 18 150.5 L 19 155.5 L 18 156.5 L 17 175.5 L 16 179 Q 13.3 180.1 14 177.5 Q 11.5 176 13 170.5 L 14 169.5 L 14 157.5 L 15 156.5 L 15 136.5 L 16 135.5 L 16 127 L 18.5 126 Z "/><path fill="#000000"  stroke="none" opacity="1" d="M 127.5 129 L 129.5 130 L 177.5 130 L 184 132.5 L 185 139.5 L 185 141.5 L 185 151.5 L 186 152.5 L 186 162.5 L 187 163.5 L 187 177.5 L 189 184.5 L 189 220.5 L 188 221.5 L 188 231 Q 184.5 232.1 186 224.5 L 185 224.5 L 182 241.5 L 177 253 Q 173.7 251.7 175 256.5 L 179 273.5 L 177.5 275 L 171.5 275 L 162.5 278 L 121.5 278 L 120.5 277 L 110.5 277 L 109.5 276 L 85.5 276 L 70.5 273 L 55.5 273 Q 51.5 270 43.5 271 L 41.5 272 L 35.5 270 L 18.5 270 L 17 268.5 L 17 258.5 L 18 257.5 Q 16.3 249.3 19 245.5 L 18 242.5 L 19 241.5 L 20 217.5 L 29 186.5 L 38 167.5 L 54.5 149 Q 66.1 141.1 81.5 137 Q 88.5 137 92.5 134 L 101.5 134 L 114.5 137 L 126.5 143 Q 141.8 152.2 153 165.5 L 158 173.5 L 168 203.5 L 170 226.5 L 171 227.5 L 171 236.5 L 174.5 252 Q 185.8 229.3 186 195.5 L 182 173.5 L 181 135 L 177.5 134 L 137.5 133 L 136.5 132 L 125.5 132 L 123 130.5 L 127.5 129 Z M 95 137 L 74 143 L 60 150 L 52 157 L 39 172 L 26 206 L 24 215 L 23 238 L 22 239 L 22 247 L 21 248 L 19 268 L 26 268 L 27 267 Q 35 270 48 268 L 54 270 L 71 270 L 85 273 L 122 274 L 129 276 L 162 275 L 174 271 L 174 261 L 168 238 L 164 202 L 155 176 L 148 166 Q 139 155 127 147 L 110 139 L 95 137 Z "/><path fill="#000000"  stroke="none" opacity="1" d="M 96.5 143 L 102 144 Q 103.4 148 96.5 146 Q 91.7 148.2 93 156.5 L 96.5 159 Q 99.8 152.3 111.5 154 L 121 160.5 L 124 169.5 L 123 174 Q 135.3 175.9 143 183.5 Q 146 186.5 146 192.5 L 142.5 197 L 137 199.5 Q 137.8 201.8 135.5 201 L 130 202 Q 130 208.8 133.5 213 L 140.5 212 L 148 206.5 Q 151.6 204.6 151 198.5 L 147 196 Q 145.3 191.9 149.5 193 L 154 199.5 L 153 204.5 L 148.5 211 Q 143.2 216.2 132 215.5 L 142.5 216 L 147 220.5 Q 147.5 224.5 144.5 225 L 129.5 228 L 127.5 227 L 122.5 228 L 121.5 227 L 100.5 227 L 98 228.5 L 101.5 232 L 124.5 233 L 127.5 229 L 129 229.5 L 127 234.5 Q 134.6 237.4 134 248.5 L 133 251 Q 129.1 253.4 119.5 252 L 113.5 249 L 109.5 249 L 105.5 251 L 99.5 251 L 92.5 253 L 82.5 253 L 72.5 248 L 68.5 251 L 68 249.5 L 70 246.5 L 54 233.5 L 49 223.5 L 49 218 Q 44.9 219.3 46 216 Q 52.4 218.3 50 210.5 L 51 208 Q 41.6 206.6 37 199.5 L 36 197.5 L 39.5 196 L 40.5 197 L 54.5 198 L 55.5 197 L 73 197 Q 74.3 194 70.5 195 L 69.5 194 L 60.5 194 Q 59.3 196.2 58 193.5 L 58.5 192 L 71.5 192 L 71.5 191 L 66.5 190 Q 64.8 192.7 58.5 191 L 53 188 L 49 180.5 L 49 172.5 L 50 170 Q 53.4 169.3 54.5 172 Q 56.1 167.1 63.5 168 L 71 172.5 L 73 178 L 75 177.5 L 75 168.5 L 79 165.5 Q 76 168.5 77 175.5 L 81 177 Q 79.5 168.8 84.5 166 L 87 165.5 Q 83.4 162.1 75.5 163 L 68 167 L 70.5 163 Q 74.5 159.5 83.5 161 L 91.5 166 L 93 162.5 Q 87.7 160.3 89 151.5 L 94.5 144 L 96.5 143 Z M 106 158 L 101 161 Q 98 160 99 163 L 109 169 L 117 172 Q 120 173 121 171 L 120 164 L 113 158 L 106 158 Z M 88 166 Q 83 167 84 173 L 84 175 L 84 176 L 88 176 L 88 179 L 84 181 L 87 187 L 88 184 Q 87 181 90 182 Q 88 184 89 190 L 91 189 Q 89 182 94 184 Q 95 189 92 192 L 95 192 L 96 185 L 100 183 L 102 188 L 105 183 L 111 184 L 113 186 L 113 185 Q 114 181 119 182 L 121 182 L 123 183 L 126 181 L 125 184 L 128 184 L 131 194 L 135 195 L 140 194 L 142 192 Q 143 187 140 186 L 134 181 L 123 177 Q 118 177 118 180 L 108 180 L 94 172 L 94 179 L 93 180 L 91 179 L 91 169 L 88 166 Z M 97 166 L 95 169 L 106 176 L 114 178 L 117 177 L 104 171 L 97 166 Z M 61 172 Q 57 174 58 180 Q 61 181 63 178 L 65 179 L 61 183 L 59 183 L 60 185 L 68 184 L 70 180 L 69 177 Q 67 172 61 172 Z M 73 179 Q 75 185 71 187 L 73 190 L 76 191 L 76 183 L 75 182 Q 76 178 73 179 Z M 78 180 L 79 183 L 79 193 L 82 192 Q 84 186 81 185 Q 83 178 78 180 Z M 125 185 L 124 192 L 121 192 L 121 190 L 114 193 Q 123 193 128 199 L 130 199 Q 124 195 125 185 Z M 106 186 L 104 189 Q 103 193 106 192 L 106 186 Z M 99 189 L 98 192 L 99 192 L 99 189 Z M 109 189 Q 107 194 113 192 L 112 191 Q 113 188 109 189 Z M 77 195 L 75 197 L 78 197 L 77 195 Z M 89 195 L 89 197 L 89 198 L 93 198 L 94 196 L 89 195 Z M 96 195 L 95 199 L 121 199 L 118 196 L 113 195 L 96 195 Z M 41 199 Q 42 205 52 205 Q 54 204 53 200 L 41 199 Z M 66 200 L 65 201 L 56 201 L 55 205 L 62 205 L 70 202 L 72 203 L 73 204 L 73 200 L 66 200 Z M 77 200 L 75 202 L 76 204 L 84 204 Q 86 209 88 206 Q 87 203 92 204 Q 95 206 95 212 L 96 208 Q 97 205 99 207 L 102 205 Q 104 207 104 212 L 104 208 Q 107 207 106 210 Q 109 211 108 208 L 113 207 L 117 209 L 121 206 Q 123 207 122 212 L 119 214 L 120 216 L 122 215 L 126 217 Q 130 218 129 216 L 126 214 L 129 212 L 128 207 L 125 202 L 109 202 L 108 203 L 99 201 L 79 201 L 77 200 Z M 67 205 Q 62 209 53 208 L 52 213 L 54 216 L 60 215 L 59 213 L 60 209 L 63 208 L 71 210 L 72 207 Q 71 204 67 205 Z M 80 206 Q 78 209 75 208 L 73 213 L 76 214 L 82 213 L 82 206 L 80 206 Z M 85 208 L 84 216 L 84 217 L 87 217 L 85 208 Z M 91 208 L 89 212 Q 87 219 92 217 L 91 208 Z M 101 208 L 99 211 Q 97 216 101 215 L 101 208 Z M 116 209 L 112 213 Q 110 219 115 217 L 116 211 L 116 209 Z M 120 209 L 119 211 L 120 211 L 120 209 Z M 107 211 L 107 217 L 109 217 L 109 212 L 107 211 Z M 70 216 L 68 218 L 51 218 L 58 234 Q 64 241 74 245 Q 77 239 85 237 L 86 235 L 83 236 Q 73 238 69 234 L 63 227 L 68 223 L 73 222 Q 88 220 95 226 Q 97 225 96 220 L 84 218 Q 79 217 78 219 L 70 216 Z M 104 216 L 104 217 L 104 216 Z M 135 219 L 134 220 Q 131 219 132 222 L 129 220 L 112 220 L 111 221 L 109 220 L 99 220 L 98 223 L 109 223 L 119 225 L 129 225 L 129 223 Q 132 222 131 225 L 141 224 L 145 222 Q 142 218 135 219 Z M 77 224 Q 75 227 69 225 L 67 228 L 75 233 Q 87 235 91 229 L 87 225 L 77 224 Z M 93 230 L 87 234 L 87 235 L 96 234 L 97 233 L 93 230 Z M 105 234 L 105 237 L 113 244 L 118 242 L 122 236 L 120 235 L 105 234 Z M 97 236 Q 84 238 77 246 L 83 249 L 101 249 L 108 246 L 104 241 L 100 236 L 97 236 Z M 125 238 L 117 246 Q 122 249 129 248 L 130 246 L 125 238 Z "/><path fill="#000000"  stroke="none" opacity="1" d="M 13 183 Q 17.5 181.3 16 186.5 L 15 187.5 L 15 199.5 L 16 200.5 L 16 225.5 L 17 226.5 L 18 239 Q 15 240.3 16 236.5 L 13 219.5 L 13 183 Z "/><path fill="#000000"  stroke="none" opacity="1" d="M 136 190 Q 141.2 188.3 140 192 Q 134.8 193.7 136 190 Z "/><path fill="#000000"  stroke="none" opacity="1" d="M 186 237 L 188 237.5 L 188 250.5 L 186.5 255 L 185 252.5 L 186 251.5 L 186 237 Z "/><path fill="#000000"  stroke="none" opacity="1" d="M 77.5 254 Q 83 253.5 85 256.5 Q 85.8 260.3 83.5 261 Q 77.4 259.2 80 266.5 Q 79.3 268.8 75.5 268 L 74.5 266 Q 78.9 267.5 78 264.5 L 77 260.5 L 78 257 Q 75.3 255.9 76 258.5 L 75.5 261 L 73 259.5 L 75.5 255 L 77.5 254 Z M 82 257 L 80 259 L 81 260 L 83 259 Q 84 256 82 257 Z "/><path fill="#000000"  stroke="none" opacity="1" d="M 98 258 Q 101.7 256.6 100 262.5 L 103 263.5 L 100 265.5 L 100 268 Q 102.7 266.9 102 269.5 L 98 271 L 98 258 Z "/><path fill="#000000"  stroke="none" opacity="1" d="M 42 259 Q 45.7 257.6 44 263.5 L 47 265 Q 48.4 268.7 42.5 267 Q 40.3 266.3 41 262.5 L 42 259 Z "/><path fill="#000000"  stroke="none" opacity="1" d="M 107.5 259 L 109.5 260 L 111.5 259 L 115 260 Q 116.1 263.3 112 262 L 112 268.5 L 115 269.5 Q 115.8 272.1 112.5 271 L 107.5 272 L 105.5 269 L 107 268.5 L 107 261.5 Q 104.8 260.3 107.5 259 Z "/><path fill="#000000"  stroke="none" opacity="1" d="M 49 260 L 54 260 L 54 261.5 L 55 266.5 Q 54.3 268.8 50.5 268 L 48 262.5 L 49 260 Z M 52 264 L 52 265 L 52 264 Z "/><path fill="#000000"  stroke="none" opacity="1" d="M 95.5 260 Q 98.5 259.2 97 263 Q 92.1 261.2 94 267.5 L 93 270 L 82 271 Q 81.2 264.8 85.5 262 L 89 263.5 Q 87.1 268.9 90.5 268 L 90 266.5 L 93.5 261 L 95.5 260 Z M 86 265 L 85 267 L 86 267 L 86 265 Z "/><path fill="#000000"  stroke="none" opacity="1" d="M 167 260 L 169 260.5 L 169 269 L 164.5 271 L 162.5 271 Q 159.2 272.1 160 269.5 L 157.5 271 Q 155.3 271.8 156 269.5 L 153.5 271 L 149.5 270 L 149 272 L 144.5 273 L 143 270.5 Q 146.5 269 144 267.5 Q 143.3 265.3 145.5 266 Q 148.5 264.5 145.5 263 L 144 262.5 L 146.5 261 L 149.5 265 L 150 263 L 156 265.5 L 156.5 268 L 164.5 265 L 166.5 268 L 167 260 Z M 149 266 L 148 268 L 149 268 L 149 266 Z M 152 267 Q 152 271 154 268 L 152 267 Z "/><path fill="#000000"  stroke="none" opacity="1" d="M 56 261 L 58 261 L 58 266 L 63 266 L 63 269 L 56 269 L 56 261 Z "/></svg>