<svg viewBox="0 0 208 296" version="1.1" xmlns="http://www.w3.org/2000/svg"><path fill="#d99134"  stroke="none" opacity="1" d="M 22.5 126 L 31.5 129 L 40 127 Q 38.8 130 42.5 129 L 44.5 129 L 49.5 126 L 55.5 129 L 65.5 131 L 121.5 132 Q 126.9 128.9 136.5 130 L 137.5 131 L 153.5 131 L 160.5 133 L 175.5 133 L 178 132 L 178 134 L 183 134 L 183 144.5 L 184 145.5 L 184 164.5 L 185 165.5 L 185 177.5 L 186 178.5 L 186 191.5 L 188 197.5 L 188 214.5 L 186 216.5 L 184 234.5 L 181 238.5 L 179 247.5 L 175.5 251 L 171 253 L 170 230.5 L 168 222.5 L 167 206.5 L 163 189.5 L 157 174.5 L 145.5 159 L 141.5 158 L 120 143.5 L 121 141 L 110.5 137 L 90.5 137 L 64.5 145 L 44 160.5 L 32 181.5 Q 30.5 193 25 200.5 L 22 241.5 L 20 245 L 17.5 246 L 15 241.5 Q 16.5 236 14 234.5 L 15 233.5 L 15 213.5 L 16 212.5 L 14 202.5 Q 16.3 201.2 15 196.5 L 14 192.5 L 15 189.5 L 13 184.5 L 14 183.5 L 14 175.5 L 16 171.5 L 15 168.5 L 16 167.5 L 17 134.5 L 16 131.5 L 22.5 126 Z "/></svg>