<svg viewBox="0 0 444 570" version="1.1" xmlns="http://www.w3.org/2000/svg"><path fill="#000000"  stroke="none" opacity="1" d="M 216.5 43 L 226.5 43 L 228.5 45 L 237.5 46 L 242.5 48 L 253.5 48 L 270.5 52 L 286.5 53 Q 296.4 56.6 303 63.5 L 307 72.5 L 307 76.5 L 306 77.5 L 305 88.5 L 301 96.5 L 297 118.5 L 295 123.5 L 293 144.5 L 290 158.5 L 290 165.5 L 285 186.5 L 285 196.5 L 288 200.5 L 288 204.5 L 280 213.5 L 279 219 L 292.5 220 L 293.5 221 L 357.5 221 L 360.5 219 L 366.5 218 L 374 221 L 377 228.5 L 377 236.5 L 379 246.5 L 379 265.5 L 380 266.5 L 381 288.5 L 380 289.5 L 380 298.5 L 381 299.5 L 381 362.5 L 380 363.5 L 380 422.5 L 379 423.5 L 379 439.5 L 374 462.5 L 374 477.5 L 366 500.5 L 360 509.5 L 360 513.5 L 360 515.5 L 358.5 518 L 351.5 520 L 305.5 521 L 304.5 520 L 291.5 520 L 290.5 519 L 219.5 519 L 212.5 517 L 167.5 517 Q 165.8 514.3 159.5 516 L 158.5 517 L 148.5 517 L 143.5 515 L 133.5 515 L 132.5 514 L 111.5 514 L 92.5 509 L 88.5 509 L 85.5 507 L 79 507 L 76.5 512 L 70.5 513 L 66 509.5 L 58 478.5 L 56 468.5 L 55 452.5 L 54 451.5 L 53 409.5 L 52 408.5 L 52 371.5 L 53 370.5 L 53 352.5 L 54 351.5 L 54 317.5 L 55 316.5 L 55 304.5 L 58 291.5 L 58 280.5 L 61 271.5 L 62 260.5 L 61 256.5 L 63 252.5 Q 63 243 66 236.5 L 80.5 215 L 85.5 213 L 104.5 213 L 105.5 214 L 115.5 214 L 117.5 214 L 134.5 214 Q 142.2 217.4 154 216 L 154 208.5 Q 147.9 205.1 148 195.5 L 152 188.5 L 152 151.5 L 146 118.5 L 134 75.5 L 134 68.5 Q 135.4 62.4 140.5 60 L 148.5 55 L 155.5 53 Q 167.2 52.7 175.5 49 L 186.5 49 L 198.5 46 L 212.5 45 L 216.5 43 Z M 222 47 L 218 50 L 208 52 L 196 52 L 188 54 L 177 54 L 176 58 L 178 59 L 187 59 L 198 62 L 213 64 L 217 70 L 214 80 Q 222 79 227 82 L 240 82 L 249 80 L 266 79 L 282 75 L 284 72 L 283 66 L 276 60 L 267 59 L 252 54 L 246 55 L 249 55 L 253 60 L 253 62 L 250 62 L 233 50 L 226 49 L 222 60 L 222 63 L 220 65 L 217 64 L 217 61 L 222 51 L 222 47 Z M 163 55 L 163 57 L 156 60 Q 152 61 153 68 L 161 72 L 175 60 L 169 55 L 163 55 Z M 178 62 L 167 73 L 171 75 Q 176 74 179 77 L 185 77 L 190 79 L 210 80 L 213 69 Q 209 70 207 67 L 200 67 L 192 64 L 187 64 L 183 62 L 178 62 Z M 145 64 L 139 67 L 140 76 L 148 100 L 149 108 L 151 111 L 151 116 L 153 120 L 158 145 L 158 182 L 156 192 L 153 196 L 153 201 L 158 207 L 158 216 L 151 225 L 150 229 L 160 236 L 163 236 L 175 241 L 190 244 L 214 246 L 215 247 L 235 247 L 250 243 L 250 242 L 239 244 L 219 244 L 207 241 L 202 241 L 193 238 L 187 238 L 180 236 L 168 231 L 166 228 L 171 228 L 185 233 L 195 233 L 210 236 L 218 236 L 219 237 L 236 237 Q 237 235 242 236 L 267 228 L 269 229 L 270 229 L 270 234 L 281 231 L 283 229 Q 284 223 281 222 L 278 224 L 275 223 L 276 212 L 283 205 L 279 198 L 279 180 L 283 161 L 286 130 L 295 92 L 303 76 L 301 71 L 294 64 L 291 64 Q 292 71 289 75 L 282 81 L 270 84 L 258 84 L 252 86 L 202 86 Q 197 83 189 84 L 174 81 L 165 77 L 159 76 L 149 70 Q 152 62 145 64 Z M 146 220 L 145 221 L 114 223 L 113 224 L 85 224 L 68 250 Q 69 257 66 261 L 65 276 L 63 281 L 62 312 L 60 321 L 60 369 L 59 370 L 59 408 L 60 409 L 62 454 L 63 455 L 63 464 L 64 465 L 65 476 L 72 502 L 81 502 L 82 503 L 87 502 L 105 504 L 106 505 L 140 507 L 152 510 L 165 510 L 170 512 L 222 512 L 223 513 L 233 513 L 234 514 L 292 514 L 293 513 L 311 513 L 315 511 L 317 512 L 331 512 L 332 511 L 342 511 L 343 510 Q 351 512 355 509 L 359 503 L 364 490 L 367 475 L 367 467 L 369 463 L 369 452 L 370 451 L 371 435 L 372 434 L 372 352 L 372 350 L 373 346 L 373 310 L 371 301 L 371 278 L 369 267 L 368 245 L 367 240 L 364 246 L 364 253 L 361 255 Q 358 254 359 250 L 355 248 Q 356 245 360 246 L 362 241 L 363 229 L 317 228 L 310 226 L 299 226 L 288 224 L 289 228 L 288 234 L 255 250 L 238 255 Q 231 253 230 256 L 214 255 L 208 253 L 182 250 L 158 240 L 151 234 L 148 236 L 144 235 L 144 230 L 148 223 Q 149 219 146 220 Z M 259 238 L 259 239 L 259 238 Z M 253 240 L 253 241 L 256 241 L 253 240 Z "/><path fill="#000000"  stroke="none" opacity="1" d="M 260.5 60 L 264 62.5 L 266 67 L 272 71.5 Q 273.7 76.3 269.5 75 L 263 67 L 259.5 66 L 252.5 69 L 227.5 71 L 225.5 71 L 220 69.5 L 224.5 67 L 233.5 67 Q 238.5 64 247.5 65 L 260.5 60 Z "/><path fill="#000000"  stroke="none" opacity="1" d="M 161.5 202 L 174.5 206 L 224.5 209 L 225.5 208 L 253.5 208 L 254.5 207 L 269 206 L 270 209.5 L 266.5 213 L 253.5 216 L 245.5 216 L 244.5 217 L 214.5 217 L 213.5 216 L 197.5 215 L 190.5 213 L 182.5 213 L 159 204.5 Q 158.3 202.3 160.5 203 L 161.5 202 Z "/><path fill="#000000"  stroke="none" opacity="1" d="M 77.5 250 L 140.5 251 L 146.5 253 L 157.5 253 Q 161.4 255.9 168 255 L 168 259 L 161.5 259 L 160.5 258 L 144.5 258 L 143.5 257 L 119.5 257 L 112.5 255 L 94.5 255 L 93.5 254 L 78 253 L 79 308.5 L 78 309.5 L 77 328.5 L 75 339 L 71 339 L 71 337.5 L 70 336.5 L 70 322.5 L 71 321.5 L 71 308.5 L 73 299.5 L 74 253.5 L 77.5 250 Z "/><path fill="#000000"  stroke="none" opacity="1" d="M 259.5 256 L 344.5 256 L 350.5 258 L 356.5 258 L 359 260.5 Q 361.9 264.1 361 271.5 Q 358.7 272.8 360 277.5 L 361 278.5 L 362 305.5 L 364 314.5 L 364 333.5 L 368 354.5 L 368 374.5 L 367 375.5 L 367 413.5 L 366 414.5 L 366 425.5 L 364.5 427 Q 361.1 427.9 363 422.5 L 361.5 417 L 356 443.5 L 347 464 L 344 465.5 L 344 469.5 L 346 473.5 L 349 488.5 L 349 494.5 Q 351.8 495.3 351 499.5 L 346.5 502 L 338.5 502 L 332.5 505 L 322.5 507 L 270.5 507 L 265.5 508 L 264.5 507 L 253.5 507 L 246.5 505 L 206.5 503 L 205.5 504 L 195.5 504 Q 190.9 501.1 182.5 502 L 177.5 500 L 140.5 498 Q 139.2 495.7 134.5 497 L 131.5 495 L 122.5 495 L 118.5 497 L 115.5 495 L 95.5 493 L 92.5 494 L 91.5 493 L 77 493 L 77 473.5 L 78 472.5 L 79 450.5 L 78 448.5 L 79 447.5 L 79 441 L 75 439.5 L 73 435.5 L 73 426.5 L 71 420.5 L 71 410.5 L 70 409.5 L 70 346 L 74 346.5 L 74 382.5 L 75 383.5 L 75 417.5 L 77 421.5 L 77 431.5 L 78 437 L 80 436.5 L 80 424.5 L 81 423.5 L 81 409.5 L 85 388.5 L 90 375.5 L 93 362.5 L 95 359.5 L 95 356.5 L 100 347.5 L 100 344.5 L 105 332.5 Q 117.9 308.4 137.5 291 L 148.5 283 L 165.5 275 L 205.5 263 L 219.5 263 L 222.5 265 L 228.5 265 Q 232.5 268 239.5 268 L 260.5 278 L 287.5 297 L 300 309.5 Q 309.3 318.2 315 330.5 L 318 342.5 L 322 349.5 L 322 353.5 L 331 376.5 Q 331 386 334 392.5 L 334 403.5 L 336 411.5 L 337 433.5 Q 340 438.5 339 447.5 L 342 455.5 L 342 460.5 L 343.5 462 L 350 447.5 L 354 433.5 L 354 428.5 L 357 419.5 L 357 413.5 L 359 410.5 L 360 398.5 L 363 392.5 L 363 383.5 L 362 382.5 L 361 359.5 L 359 354.5 L 359 348.5 L 357 342.5 L 357 332.5 L 356 331.5 L 356 311.5 L 354 301.5 L 354 265 L 343.5 263 L 283.5 262 L 278.5 260 L 260.5 260 L 256 257.5 L 259.5 256 Z M 208 269 L 169 280 L 152 289 L 137 301 L 124 315 Q 125 317 122 316 L 112 331 L 109 340 L 107 342 L 107 345 L 100 360 L 97 373 L 92 385 L 92 389 L 90 392 L 89 404 L 88 405 L 88 414 L 87 415 L 87 434 L 85 443 L 85 454 L 83 461 L 82 475 L 80 481 L 80 490 L 91 490 L 92 489 L 100 489 L 101 490 L 128 490 Q 129 493 135 491 L 138 493 L 164 493 L 171 495 L 181 495 L 191 498 L 199 498 L 200 499 L 204 498 L 253 500 L 266 503 L 323 501 Q 324 499 329 500 L 338 495 L 342 495 L 342 479 Q 339 472 339 463 L 335 455 Q 336 448 333 445 L 332 433 L 330 426 L 330 414 L 328 408 L 327 391 L 325 385 L 325 378 L 317 352 Q 312 345 310 335 L 296 315 L 283 301 L 256 282 L 227 270 L 208 269 Z "/><path fill="#000000"  stroke="none" opacity="1" d="M 210.5 279 Q 217.8 277.8 220 281.5 Q 221.3 285.3 217.5 284 L 212.5 283 L 207 287.5 Q 203.5 291.5 205 300.5 L 209.5 306 Q 214 299.5 222.5 297 L 236.5 297 L 251 306.5 Q 257.5 312 257 324.5 L 256 329.5 L 282.5 340 L 290 347.5 L 295 359.5 Q 293.9 366.9 288.5 370 L 281.5 372 L 279 374.5 Q 280.1 377.8 277.5 377 L 268 379 L 271 394.5 L 272.5 396 L 285.5 395 Q 294.3 391.8 299 384.5 L 303 376.5 L 303 372.5 L 296 366.5 Q 294.5 362.1 297.5 363 L 299.5 362 L 305 366.5 Q 308 369.5 308 375.5 Q 305.8 376.8 307 381.5 L 300 393 L 290.5 399 L 274.5 400 L 272 401.5 L 289.5 402 L 291 403.5 L 292.5 406 L 296 408.5 Q 297.3 414.8 293.5 416 L 280.5 421 L 253.5 422 L 252.5 421 L 230.5 421 Q 229 418.5 223.5 420 Q 222.3 422.3 217.5 421 L 213 423.5 L 219.5 429 L 245.5 429 Q 250.4 432.3 259 431 L 263.5 423 Q 266.1 422.2 265 425.5 L 262 434 L 263.5 434 L 273 443.5 L 275 448.5 L 275 455.5 L 270.5 462 L 264.5 464 L 258.5 464 Q 256.7 461.3 250.5 463 L 241.5 460 L 239.5 458 L 233.5 458 L 222.5 462 L 206.5 463 L 201.5 465 L 189.5 465 L 169.5 457 L 164.5 461 L 162 461 Q 161.3 457.2 164.5 456 Q 167.5 456.7 166 453 Q 152 445.7 141 434.5 L 132 418.5 L 130 411.5 L 130 406.5 L 128.5 405 Q 124.3 406.1 126 402 L 131.5 402 L 132 400.5 L 134 389.5 L 130.5 387 L 126.5 387 L 120.5 384 L 112 376.5 L 109 370.5 Q 111.1 368.1 116.5 369 L 117.5 370 L 127.5 370 L 128.5 371 L 140.5 371 L 145.5 369 L 146.5 370 L 170.5 370 L 172 367 Q 163.9 363.5 149.5 365 L 147.5 366 L 146 362 L 151 360.5 Q 141.7 359.3 137 353.5 L 131 342.5 L 130 331.5 L 132 325 L 136.5 324 L 139 325 L 139.5 327 Q 143.7 319.7 156.5 321 L 166 326 L 172.5 337 L 174 336.5 L 174 323.5 L 178.5 317 L 180.5 316 L 181 319.5 Q 176.3 323.3 178 333.5 L 179 336 L 184 336 L 184 331.5 L 186 321.5 L 189.5 318 L 194 316.5 Q 188 311.5 175.5 313 Q 168.5 314 165.5 319 L 163 319 L 163 316.5 L 167.5 312 L 174.5 309 L 182.5 308 L 191.5 310 L 202.5 317 L 205 312.5 Q 200 308.5 198 301.5 L 198 293.5 L 201 286.5 L 206.5 281 L 210.5 279 Z M 229 304 L 221 306 L 218 309 Q 215 308 216 312 L 234 323 L 250 328 L 252 325 Q 253 316 250 313 L 245 307 L 238 304 L 229 304 Z M 194 317 L 194 320 L 191 321 L 189 328 Q 187 333 191 335 L 193 334 L 196 335 Q 199 334 197 339 Q 196 341 191 340 L 193 350 Q 192 352 195 351 L 196 347 L 200 345 L 198 351 L 198 358 L 200 358 Q 202 356 201 350 L 204 347 L 207 349 Q 208 356 205 360 Q 203 361 206 362 L 208 361 L 210 355 L 210 350 Q 210 345 216 346 L 220 354 L 222 348 L 227 346 L 229 347 L 231 347 Q 236 346 238 350 Q 240 351 239 349 L 245 344 Q 249 343 250 346 L 252 345 L 255 346 L 259 343 L 261 345 L 260 347 L 264 348 L 269 363 L 275 366 L 284 365 L 288 361 Q 289 354 285 352 L 280 346 L 255 336 L 252 336 L 247 341 L 242 342 L 230 341 Q 217 336 209 327 L 207 328 L 207 340 L 204 341 L 201 338 L 201 322 L 194 317 Z M 211 318 L 209 322 L 225 333 L 231 336 Q 235 335 237 337 Q 241 338 243 336 Q 246 337 245 335 L 244 333 L 240 333 L 229 329 L 211 318 Z M 151 328 L 146 332 L 146 340 L 148 341 L 151 341 Q 152 336 157 337 L 157 340 L 154 344 L 151 346 Q 145 344 146 348 L 150 350 Q 158 352 162 348 L 165 344 L 164 335 Q 161 328 151 328 Z M 172 340 Q 173 347 170 351 Q 165 353 169 355 Q 173 354 171 358 L 176 360 L 175 342 L 172 340 Z M 180 341 L 182 351 L 182 363 L 187 361 L 184 344 Q 185 339 180 341 Z M 227 352 L 224 355 Q 223 362 226 361 L 227 359 L 227 352 Z M 259 353 Q 259 360 256 362 L 252 359 Q 244 358 243 363 Q 256 365 264 373 L 267 373 Q 259 366 259 353 Z M 215 357 L 213 360 Q 212 362 215 361 L 215 357 Z M 233 357 L 233 361 L 239 361 L 238 359 Q 237 356 233 357 Z M 161 358 Q 159 362 153 360 L 153 361 L 169 361 Q 167 357 161 358 Z M 225 366 L 224 367 L 212 367 L 209 373 L 252 373 L 245 368 L 225 366 Z M 176 367 L 176 370 L 180 370 L 176 367 Z M 198 367 L 198 371 L 203 372 L 205 371 L 206 369 L 206 367 L 198 367 Z M 117 373 L 115 375 L 127 382 L 135 383 L 138 378 L 136 375 Q 123 377 117 373 Z M 166 375 L 165 376 L 145 376 Q 141 378 141 383 L 144 384 L 145 383 L 156 382 L 164 379 L 171 381 L 171 377 Q 170 374 166 375 Z M 177 376 Q 174 377 175 382 L 182 382 L 183 381 L 188 381 L 196 386 L 197 382 L 201 381 L 203 382 Q 208 385 208 394 L 210 386 Q 217 387 220 383 Q 223 385 222 391 L 224 390 Q 223 387 226 388 L 229 392 L 230 389 Q 235 390 238 387 Q 244 386 243 389 L 245 390 L 249 386 Q 254 385 255 389 L 254 395 L 249 399 L 251 402 L 257 400 L 258 403 Q 259 405 265 404 L 266 400 L 260 398 L 266 395 L 261 381 L 256 378 L 233 378 L 230 380 Q 226 381 227 378 L 177 376 Z M 161 383 L 149 389 L 138 389 L 136 400 L 138 401 L 149 401 L 148 397 L 149 392 L 153 389 L 160 389 L 165 392 L 168 392 L 169 386 Q 167 382 161 383 Z M 183 385 L 179 389 L 176 389 L 172 397 L 175 398 L 185 397 L 186 396 L 186 386 L 183 385 Z M 191 389 L 189 404 Q 193 405 194 403 L 193 402 L 193 393 L 191 389 Z M 218 389 L 215 393 L 215 400 L 219 400 L 219 391 L 218 389 Z M 201 390 L 199 393 Q 201 399 198 401 L 198 404 L 203 404 L 202 393 L 201 390 Z M 243 392 L 241 393 L 238 396 L 237 403 Q 238 405 242 404 Q 244 403 242 402 Q 241 396 243 395 L 243 392 Z M 250 392 L 250 393 L 250 392 Z M 228 395 L 228 403 L 231 404 Q 234 402 232 396 L 228 395 Z M 166 402 L 163 405 Q 158 404 157 406 L 134 407 L 146 432 L 155 439 Q 157 438 156 441 L 166 448 L 173 451 L 174 449 Q 181 440 193 436 L 194 434 L 188 436 L 171 436 L 162 431 Q 156 429 155 423 L 156 417 L 163 414 L 174 413 L 175 412 L 192 412 L 209 419 Q 211 416 210 410 L 204 407 L 173 406 L 166 402 Z M 284 407 L 273 409 Q 269 408 271 412 L 267 412 L 266 409 L 237 409 L 235 411 L 232 409 L 215 409 L 214 414 L 220 413 L 233 414 L 240 416 L 249 416 L 250 417 L 266 417 L 268 414 Q 271 413 269 417 L 277 417 L 291 413 L 292 409 L 284 407 Z M 177 416 L 176 417 L 165 417 L 161 420 L 163 424 L 173 430 L 178 431 L 189 431 L 200 425 L 201 421 L 189 416 L 177 416 Z M 205 426 L 195 433 L 195 434 L 207 433 L 208 432 Q 212 434 211 430 L 205 426 Z M 225 433 L 225 436 L 232 444 L 239 449 Q 245 449 248 444 L 251 442 L 253 436 L 249 434 L 225 433 Z M 211 436 L 208 438 L 195 441 L 180 450 L 178 453 L 189 458 L 219 457 L 229 453 L 229 451 L 217 438 Q 217 435 211 436 Z M 259 439 L 256 440 L 251 447 Q 252 449 249 448 L 247 453 L 253 455 Q 259 453 261 456 Q 266 457 267 454 L 266 449 L 259 439 Z "/><path fill="#000000"  stroke="none" opacity="1" d="M 278 358 L 284.5 358 L 285 359.5 Q 283.4 362.5 278 361 L 278 358 Z "/><path fill="#000000"  stroke="none" opacity="1" d="M 363.5 437 L 366 438.5 L 366 457.5 L 365 458.5 L 365 466.5 L 363.5 468 Q 360.3 467.3 361 462.5 L 362 461.5 L 362 438.5 L 363.5 437 Z "/><path fill="#000000"  stroke="none" opacity="1" d="M 178.5 466 Q 188.3 465.2 192 470.5 Q 193.3 476.8 189.5 478 L 183 479 L 183 487.5 L 180.5 490 Q 174.3 491.3 173 487.5 L 179 486 L 178 480.5 L 179 479.5 L 179 472 Q 174.9 470.3 176 474.5 L 176 476.5 Q 176.8 479.1 173.5 478 L 171 474.5 L 176.5 467 L 178.5 466 Z M 186 472 L 185 473 Q 181 472 183 476 L 188 474 Q 189 471 186 472 Z "/><path fill="#000000"  stroke="none" opacity="1" d="M 119.5 474 L 122 475.5 Q 120.3 482.3 123.5 484 L 127 486.5 Q 127.8 488.8 125.5 488 L 120.5 489 Q 116.3 488.2 117 482.5 Q 119.5 481 118 475.5 L 119.5 474 Z "/><path fill="#000000"  stroke="none" opacity="1" d="M 214 474 Q 216.7 472.9 216 475.5 L 217 480 Q 220.8 479 222 481.5 Q 222.8 483.8 220.5 483 L 217 485.5 Q 216.3 489.3 218.5 490 Q 222.3 488.8 221 492.5 Q 219.5 496.3 214 495 L 213 492.5 L 212.5 480 L 207 482 L 206 490.5 L 203.5 493 L 189.5 496 L 187 495 Q 186 484.2 192.5 480 Q 198 479 199 482.5 Q 197.5 489.5 200.5 489 L 200 487.5 Q 200.9 480.9 205.5 478 L 211.5 477 L 213 477.5 L 214 474 Z M 193 487 L 193 488 L 193 487 Z "/><path fill="#000000"  stroke="none" opacity="1" d="M 229.5 475 L 233.5 476 L 236.5 475 L 242 477.5 L 240.5 480 L 237 480 L 237 491 L 242 491 L 242 493.5 L 240.5 495 L 231.5 497 L 226 493.5 Q 225.3 491.3 227.5 492 Q 230.3 490.8 228 489.5 L 229 480.5 L 227 477.5 L 229.5 475 Z "/><path fill="#000000"  stroke="none" opacity="1" d="M 132.5 476 L 139 477 L 141.5 482 L 143.5 478 L 146 480.5 Q 144.8 485.8 147.5 487 L 151.5 486 L 154 487 Q 155 490.8 152.5 492 L 143.5 492 L 143 490.5 L 141.5 484 Q 141.7 488.7 138.5 490 Q 131.3 491.3 130 486.5 L 129 480.5 L 130 477 L 132.5 476 Z "/><path fill="#000000"  stroke="none" opacity="1" d="M 331 476 L 334 477.5 L 334 490.5 L 332.5 492 L 331.5 491 L 327.5 495 L 326.5 494 L 324.5 493 Q 323.8 495.8 319.5 495 Q 317.5 491 315.5 495 L 310.5 493 Q 309 496.5 302.5 495 L 300 493.5 L 298.5 497 L 292.5 498 L 290 497 Q 289 491.9 293 490.5 L 292 487.5 L 296 483.5 L 294.5 482 Q 290.1 483.5 291 480.5 L 295.5 478 L 299 480.5 L 300.5 484 Q 301.5 481 306.5 482 L 310 483 L 312 489 L 322.5 485 L 325.5 485 L 329 487 L 329.5 489 L 331 476 Z M 299 487 L 299 488 L 300 488 L 299 487 Z M 304 488 L 304 490 Q 306 493 307 490 Q 308 487 304 488 Z "/></svg>