<svg viewBox="0 0 490 690" version="1.1" xmlns="http://www.w3.org/2000/svg"><path fill="#000000"  stroke="none" opacity="1" d="M 218.5 48 L 257.5 48 L 267.5 50 Q 290.7 57.8 307 72.5 L 318 84.5 L 332.5 105 L 345 113.5 L 349 118.5 L 362 146.5 L 363 157.5 L 364 158.5 L 364 171.5 L 365 172.5 L 365 179.5 L 368 195.5 L 368 211.5 L 369 212.5 L 369 228.5 L 370 233.5 L 368 235.5 L 368 265.5 Q 365.2 267.3 367 273.5 L 363 287.5 L 357 300.5 L 355 309.5 L 354 323.5 L 349.5 329 Q 346.9 328.2 348 331.5 L 341 358.5 L 337 368.5 L 337 372.5 L 340.5 378 L 342 377.5 L 343 382.5 L 349.5 390 L 373.5 405 L 392.5 411 L 409.5 420 L 434.5 430 L 453 446.5 L 454 452 L 450.5 452 L 431.5 435 L 409.5 426 L 390.5 416 L 373.5 410 L 349 394 Q 356.8 407.9 362 425.5 L 368 450.5 L 371 479.5 L 367 481 L 366 477.5 L 363 448.5 L 358 426.5 L 345.5 395 L 345 422.5 L 340 441.5 L 327 472.5 L 319 497.5 L 308 515.5 L 301.5 523 Q 298.9 523.8 300 520.5 L 302 517.5 L 301 514.5 L 305 507.5 L 309 494.5 L 307.5 494 L 297 503.5 L 297 507.5 L 282 525.5 L 276 536.5 L 274 544.5 L 274 555.5 L 278 577.5 L 278 639.5 Q 280.5 641 279 646.5 Q 277.5 649.5 276 646.5 L 275 623.5 L 274 622.5 L 274 598.5 L 275 597.5 L 275 576.5 L 271 560.5 L 271 542.5 Q 276.3 523.8 289 512.5 L 287.5 512 L 263 534.5 L 256 544.5 L 250 564 Q 245.9 562.3 247 566.5 L 245 570.5 L 243 581.5 L 238 651 Q 234.3 652.4 236 646.5 L 235 645.5 L 235 627.5 L 236 626.5 L 237 599.5 L 238 598.5 L 238 591.5 L 239 590.5 L 241 572.5 Q 248.5 558 252 539.5 L 258 527.5 L 256 527 Q 254.1 518.8 247.5 514 Q 240.8 510.2 230.5 510 L 213.5 504 L 200 494.5 L 197.5 491 L 197 492.5 L 200 498.5 L 200 512.5 L 197 524 L 193 522.5 Q 192.7 511.8 188 505.5 Q 181.5 491.5 170.5 482 L 160 473.5 L 149 452.5 L 143 437.5 L 139 422.5 L 131 403.5 L 131 385.5 L 136 371.5 L 134.5 371 L 114.5 382 L 105.5 385 L 85.5 395 L 70.5 401 L 46.5 408 L 32.5 416 Q 30.3 415.3 31 411.5 Q 34.8 406.3 41.5 404 L 70.5 395 L 99.5 382 L 136.5 368 L 139 365.5 L 143 357.5 L 139 343 L 135.5 343 L 127 336.5 Q 118.9 330.1 116 318.5 L 115 301.5 Q 107.4 289.6 103 274.5 L 100 263.5 L 100 252.5 L 101 247.5 L 104.5 242 L 108 241 L 100 217.5 L 96 197.5 L 96 179.5 L 98 170.5 L 106 151.5 L 108 139.5 L 109.5 138 Q 112.9 138.9 111 133.5 L 120 108.5 L 134 92.5 L 142.5 80 L 156.5 73 L 171.5 60 L 177.5 57 L 218.5 48 Z M 235 53 L 234 54 L 216 54 L 180 62 L 174 65 L 159 78 L 148 83 L 127 108 L 118 125 L 113 141 L 110 146 L 110 152 L 108 160 L 102 177 L 102 198 L 105 214 Q 112 238 124 258 L 124 231 L 125 230 L 125 207 L 120 184 L 120 171 L 123 161 L 120 160 L 121 157 Q 129 147 143 142 Q 146 141 147 144 L 138 147 L 130 159 L 125 172 L 126 190 L 130 206 L 130 233 L 129 234 L 129 263 L 130 264 L 131 283 L 135 298 L 135 308 L 140 323 L 142 346 L 146 362 Q 159 391 179 415 Q 180 419 176 417 L 162 397 L 160 396 L 167 417 L 175 434 L 192 453 L 205 473 L 220 485 L 244 498 L 263 520 L 288 483 Q 295 472 298 459 Q 299 456 303 457 L 311 447 Q 310 437 312 432 Q 323 418 328 398 Q 330 392 326 393 L 343 331 L 344 276 L 345 275 L 341 264 Q 343 257 340 256 L 340 239 L 342 230 L 340 228 L 338 227 L 338 204 L 335 203 L 335 191 L 336 190 L 336 172 L 335 171 L 334 159 L 332 155 L 331 147 L 325 140 L 324 135 L 316 130 L 313 127 Q 311 125 314 124 L 326 132 L 333 146 L 340 171 Q 339 174 342 173 L 342 180 L 343 181 L 342 184 L 342 207 L 343 207 Q 342 202 345 203 L 345 223 L 344 224 L 344 249 L 345 250 L 346 262 L 349 270 L 348 274 L 349 311 L 351 309 L 353 296 Q 359 287 361 275 L 362 270 L 362 244 L 363 243 L 363 236 L 362 230 L 359 233 Q 361 238 358 240 Q 357 245 359 247 L 359 263 L 358 264 Q 359 266 356 265 Q 358 276 353 282 Q 352 285 350 282 L 352 265 L 355 261 L 355 236 L 354 235 L 355 230 L 364 220 Q 363 215 365 214 L 365 195 L 364 197 L 361 198 L 359 197 L 358 154 L 352 135 L 348 133 L 343 122 Q 339 114 330 111 L 324 106 L 313 89 L 303 78 L 290 67 L 270 57 L 251 53 L 235 53 Z M 108 244 L 105 247 Q 106 251 104 253 L 105 254 L 105 265 Q 109 269 109 277 L 120 301 Q 122 308 121 319 L 127 330 Q 131 336 138 338 L 137 325 L 131 302 L 131 295 L 126 280 Q 127 276 124 277 Q 122 262 112 252 L 113 250 L 111 246 L 108 244 Z M 348 319 L 348 326 L 350 326 L 351 321 L 348 319 Z M 144 362 Q 138 372 135 385 L 135 405 L 148 440 L 162 470 L 173 478 Q 187 491 195 511 Q 194 514 197 513 L 197 505 L 195 498 L 180 470 L 176 465 Q 178 459 174 460 Q 173 468 176 474 Q 177 477 175 478 L 171 468 L 171 459 L 173 457 L 183 457 L 189 465 L 194 479 L 204 492 L 217 500 L 236 506 L 241 506 L 247 509 L 248 509 L 237 499 L 231 497 L 210 484 L 199 473 L 191 458 L 180 444 Q 181 441 178 442 L 175 440 L 164 418 L 144 362 Z M 336 375 L 330 387 L 333 389 L 330 408 L 323 424 L 315 437 Q 316 446 313 452 L 304 460 L 309 470 L 313 486 L 315 488 L 311 503 L 312 505 L 317 496 L 322 476 L 334 449 L 341 422 L 341 392 L 338 380 L 336 375 Z M 160 393 L 159 395 L 160 395 L 160 393 Z M 349 393 L 349 394 L 349 393 Z M 179 460 L 183 468 L 185 469 L 183 463 L 179 460 Z M 302 465 L 290 489 L 265 526 L 263 529 L 301 495 Q 306 492 308 486 L 306 473 L 302 465 Z M 186 469 L 185 471 L 186 471 L 186 469 Z M 311 505 L 311 506 L 311 505 Z M 256 517 L 256 518 L 256 517 Z M 257 518 L 257 519 L 257 518 Z M 258 519 L 259 525 L 260 525 L 258 519 Z "/><path fill="#000000"  stroke="none" opacity="1" d="M 177.5 85 L 192.5 89 Q 212.3 102.2 235.5 112 L 244.5 115 L 252.5 115 L 248.5 110 L 232 98.5 Q 230.2 92.8 236.5 95 Q 251.5 104 262.5 117 L 268 119 Q 267.8 111.5 264 106.5 L 253 93.5 L 256.5 92 L 265 99.5 Q 270.3 106.2 271.5 117 Q 274.1 112.1 273 103.5 L 271 95 L 275 97.5 Q 277.4 102.6 276 111.5 L 273 121 L 270 121 Q 271 124 268 123 Q 269.4 119.3 263.5 121 L 257.5 117 L 253.5 117 L 252.5 118 L 240.5 118 L 214.5 108 L 191.5 95 L 180.5 91 L 176.5 91 L 175 89.5 Q 173.5 85.1 176.5 86 L 177.5 85 Z "/><path fill="#000000"  stroke="none" opacity="1" d="M 282.5 96 L 285 97.5 L 285 107.5 L 281.5 117 L 280 113.5 L 281 112.5 L 281 97.5 L 282.5 96 Z "/><path fill="#000000"  stroke="none" opacity="1" d="M 292.5 106 L 295.5 110 L 307.5 115 L 313 120.5 L 306.5 121 Q 301.6 116.9 293.5 116 L 292 119 L 290 118.5 L 290 110.5 L 292.5 106 Z "/><path fill="#000000"  stroke="none" opacity="1" d="M 213.5 112 L 216 112.5 Q 213.1 117.1 206.5 118 L 180.5 121 L 165.5 130 L 148.5 134 L 134.5 140 L 131 140 L 130 137.5 L 133.5 134 L 138.5 132 L 154.5 128 L 159.5 128 L 175 121.5 Q 168.7 122.3 167 118.5 L 169.5 116 Q 175 117.5 176.5 115 L 204.5 115 Q 205.7 112.7 210.5 114 L 213.5 112 Z "/><path fill="#000000"  stroke="none" opacity="1" d="M 180.5 219 L 195.5 219 L 205.5 221 L 218.5 221 L 220 222.5 L 215.5 224 L 198.5 224 Q 197 221.5 191.5 223 L 192.5 225 L 202.5 229 L 212.5 229 Q 214.3 226.3 220.5 228 L 222 226.5 L 223.5 224 Q 226.3 225.3 224 226.5 L 222.5 230 L 216.5 232 L 202.5 233 Q 193.5 231.5 187.5 227 L 182.5 227 L 182.5 228 L 184 228.5 L 173 230 L 171.5 233 L 159.5 241 L 158 238.5 L 163.5 232 L 178 221.5 Q 177.3 219.3 179.5 220 L 180.5 219 Z "/><path fill="#000000"  stroke="none" opacity="1" d="M 307.5 222 L 314.5 222 L 325 229.5 L 329 235.5 L 330 242 L 326 240.5 L 325 236 L 315 234 Q 316.3 230.7 311.5 232 L 308.5 233 L 304.5 232 L 284.5 237 L 272.5 237 L 267.5 233 Q 259.9 239.4 256 249.5 L 255 280 L 253 279.5 L 253 249.5 Q 256.9 237.4 266.5 231 Q 269.8 232.1 269 229.5 L 269 227.5 Q 268.2 224.9 271.5 226 L 280.5 224 L 300.5 224 L 307.5 222 Z M 313 225 Q 312 227 315 226 L 316 229 L 316 230 L 319 229 Q 318 224 313 225 Z M 309 226 L 309 227 L 312 227 L 309 226 Z M 280 227 L 279 228 L 272 228 L 271 231 L 273 234 L 288 233 L 292 231 L 308 228 L 280 227 Z "/><path fill="#000000"  stroke="none" opacity="1" d="M 283.5 240 L 297.5 240 Q 308.1 243.4 314 251.5 L 312.5 254 Q 308.8 254.8 308 252.5 L 309 250.5 Q 306.5 245.8 300 246 L 296.5 252 Q 285.8 253.8 282 248.5 L 281 245 L 271 247 L 268.5 251 L 268 247.5 L 270.5 244 L 283.5 240 Z M 286 243 L 285 244 Q 282 243 283 246 L 287 248 L 288 244 L 286 243 Z M 292 243 L 292 246 L 287 249 L 295 249 Q 298 249 297 245 Q 296 242 292 243 Z "/><path fill="#000000"  stroke="none" opacity="1" d="M 191.5 241 L 210.5 241 L 216 243 L 219 250 Q 216.3 251.1 217 248.5 Q 215.4 243.1 207.5 244 Q 205.3 244.8 206 248.5 L 202.5 252 Q 199.3 254.3 192.5 253 L 190 252 L 189 246 L 180 250.5 L 186 252 L 185.5 254 L 176.5 254 L 174 253 L 176.5 249 Q 182.3 243.3 191.5 241 Z M 195 245 L 194 248 Q 195 250 202 249 L 203 245 Q 199 244 198 247 L 195 245 Z "/><path fill="#000000"  stroke="none" opacity="1" d="M 217.5 255 Q 222 254 223 256.5 Q 224.3 261.3 221 260 Q 222.3 257 218.5 258 L 216 256.5 L 217.5 255 Z "/><path fill="#000000"  stroke="none" opacity="1" d="M 267.5 255 L 271 256.5 L 267 258 Q 268.3 262.1 265 261 L 265 256 L 266.5 256 L 267.5 255 Z "/><path fill="#000000"  stroke="none" opacity="1" d="M 211.5 291 L 213 291.5 L 201 312.5 L 191.5 322 L 179 330.5 L 179 339.5 L 180 340.5 L 177 342 Q 175.3 338.6 176 331.5 L 178.5 327 L 189.5 320 L 199 310.5 L 208 294.5 L 211.5 291 Z "/><path fill="#000000"  stroke="none" opacity="1" d="M 270 297 L 275.5 299 L 278 298 Q 281.2 311 290.5 319 L 309 332.5 L 310 339.5 L 308.5 342 Q 305.8 340.8 307 335.5 L 301.5 330 Q 291.6 325.4 285 317.5 L 279 306 L 277 306.5 L 277 314.5 L 272.5 320 L 260.5 320 L 249.5 326 L 246.5 326 L 248.5 323 L 250 322.5 L 236.5 322 L 234.5 321 L 235.5 323 L 245 325 Q 246.1 327.7 243.5 327 L 238.5 328 L 227.5 323 L 224.5 320 Q 214.4 321.6 211 316.5 Q 208 312.5 209 304.5 L 210 300 L 212 300.5 L 212 310.5 L 214.5 315 Q 218 317.5 225.5 316 L 229.5 319 L 230 316 L 232 316 Q 230.9 318.7 233.5 318 L 234.5 319 L 249.5 319 L 253 316.5 L 254.5 314 L 256 314 L 256 318 L 259.5 318 L 260.5 317 L 270.5 317 L 273 314.5 L 273 302.5 Q 269.2 301.3 270 297 Z "/><path fill="#000000"  stroke="none" opacity="1" d="M 299.5 333 L 303 334.5 L 300.5 338 L 291 341 Q 288.5 349.2 281.5 354 L 258.5 369 Q 253.9 368.4 252.5 371 L 237.5 371 Q 236.2 368.8 231.5 370 L 218.5 363 L 201 348.5 L 197 341 L 188 338.5 L 190.5 337 L 191.5 338 L 222.5 338 L 240.5 343 L 252.5 343 L 262.5 339 L 287.5 338 L 299.5 333 Z M 200 341 L 207 349 L 207 344 L 209 344 L 209 349 L 207 350 L 212 353 L 214 352 L 216 354 Q 215 357 221 355 Q 222 357 224 354 L 227 356 L 235 356 L 235 359 L 238 360 L 254 360 L 257 355 L 259 356 L 264 356 L 264 354 Q 265 351 270 352 L 271 349 Q 276 349 278 346 Q 280 347 278 349 Q 279 352 275 350 L 273 353 Q 272 355 267 354 L 266 357 L 266 358 L 258 358 L 255 363 Q 248 364 246 361 L 242 363 L 237 363 L 233 359 Q 225 360 223 357 L 220 359 L 233 366 L 238 367 Q 250 369 258 365 L 279 351 L 285 343 L 267 343 Q 265 345 261 344 L 253 348 L 241 348 L 226 343 L 200 341 Z "/><path fill="#000000"  stroke="none" opacity="1" d="M 264.5 371 L 267 372.5 Q 260.7 382.2 242.5 380 L 241.5 379 L 233.5 379 L 225 374.5 L 228.5 374 L 232.5 376 L 256.5 376 L 264.5 371 Z "/><path fill="#000000"  stroke="none" opacity="1" d="M 282.5 426 Q 284.8 425.3 284 427.5 L 273.5 435 L 254.5 441 L 250.5 442 L 231.5 442 L 219.5 439 L 214 434.5 L 215.5 435 L 227.5 438 L 246.5 439 L 272.5 432 L 282.5 426 Z "/><path fill="#000000"  stroke="none" opacity="1" d="M 78 427 L 80.5 427 L 87 433.5 L 90.5 438 L 98.5 444 L 100 436 L 103 436.5 L 103 446.5 Q 102.3 448.8 98.5 448 L 85 436.5 L 78 427 Z "/><path fill="#000000"  stroke="none" opacity="1" d="M 113 446 L 116 447.5 Q 125.3 465.7 131 487.5 L 132 509.5 L 133 510.5 L 135 535.5 L 136 536.5 L 139 564.5 L 142 575.5 L 145 598.5 Q 143.5 601.5 142 598.5 L 133 547.5 L 133 540.5 L 132 539.5 L 131 524.5 L 129 515.5 L 127 486.5 L 117 455.5 L 113 449.5 L 113 446 Z "/><path fill="#000000"  stroke="none" opacity="1" d="M 258.5 616 Q 265 615 267 618.5 Q 268.7 630.7 262.5 635 L 255.5 636 L 252 632.5 L 252 622.5 L 256.5 617 L 258.5 616 Z M 258 619 L 255 623 L 256 631 L 256 628 L 258 628 L 258 633 L 260 633 Q 265 629 264 620 L 258 619 Z "/><path fill="#000000"  stroke="none" opacity="1" d="M 257 623 Q 260 621.8 259 625.5 L 257 626.5 L 257 623 Z "/><path fill="#000000"  stroke="none" opacity="1" d="M 260 625 L 262 625.5 L 260 626.5 L 260 625 Z "/></svg>